<svg xmlns="http://www.w3.org/2000/svg" xmlns:xlink="http://www.w3.org/1999/xlink" width="2000" zoomAndPan="magnify" viewBox="0 0 1500 1499.999933" height="2000" preserveAspectRatio="xMidYMid meet" version="1.0"><defs><g/><clipPath id="2b2acf5542"><path d="M 52 102.1875 L 1448.800781 102.1875 L 1448.800781 1398.1875 L 52 1398.1875 Z M 52 102.1875 " clip-rule="nonzero"/></clipPath></defs><g clip-path="url(#2b2acf5542)"><path fill="#000000" d="M 252.378906 1398.214844 L 252.378906 1270.027344 L 750.511719 890.460938 L 1247.914062 1269.492188 L 1247.914062 1398.242188 L 1448.210938 1398.242188 L 1448.210938 102.1875 L 1092.542969 102.1875 C 1155.082031 144.398438 1203.589844 207.449219 1229.480469 284.21875 C 1229.59375 284.53125 1229.675781 284.8125 1229.789062 285.125 C 1243.257812 325.246094 1249.863281 367.34375 1249.722656 409.640625 L 1247.914062 1017.632812 L 915.769531 764.53125 L 947.984375 739.996094 C 1071.199219 646.113281 1118.800781 490.59375 1069.25 343.824219 C 1019.699219 197.03125 887.589844 102.1875 732.667969 102.1875 L 52.082031 102.1875 L 52.082031 1398.214844 Z M 251.585938 302.207031 L 732.667969 302.207031 C 814.660156 302.207031 862.265625 356.785156 879.460938 407.722656 C 896.652344 458.65625 891.402344 530.882812 826.179688 580.578125 L 251.585938 1018.167969 Z M 251.585938 302.207031 " fill-opacity="1" fill-rule="nonzero"/></g><g fill="#000000" fill-opacity="1"><g transform="translate(805.638468, 845.383323)"><g><path d="M 23.140625 0.734375 C 20.234375 0.734375 17.671875 0.144531 15.453125 -1.03125 C 13.242188 -2.207031 11.550781 -3.832031 10.375 -5.90625 C 9.195312 -7.988281 8.609375 -10.34375 8.609375 -12.96875 C 8.609375 -15.59375 9.195312 -17.941406 10.375 -20.015625 C 11.550781 -22.097656 13.242188 -23.738281 15.453125 -24.9375 C 17.671875 -26.144531 20.234375 -26.75 23.140625 -26.75 C 26.085938 -26.75 28.664062 -26.160156 30.875 -24.984375 C 33.09375 -23.804688 34.789062 -22.175781 35.96875 -20.09375 C 37.144531 -18.019531 37.734375 -15.671875 37.734375 -13.046875 C 37.734375 -9.054688 36.40625 -5.757812 33.75 -3.15625 C 31.101562 -0.5625 27.566406 0.734375 23.140625 0.734375 Z M 23.140625 0.734375 "/></g></g></g></svg>